<!-- icon666.com - MILLIONS OF FREE VECTOR ICONS --><svg version="1.1" id="Capa_1" xmlns="http://www.w3.org/2000/svg" xmlns:xlink="http://www.w3.org/1999/xlink" x="0px" y="0px" viewBox="0 0 512 512" style="enable-background:new 0 0 512 512;" xml:space="preserve"><path style="fill:#F27293;" d="M346.622,85.786l-1.901-71.398c-0.303-11.399-12.868-18.162-22.55-12.139L220.384,65.578 L346.622,85.786z"></path><path style="fill:#FC819C;" d="M285.49,150.268c-34.691,0.916-63.555-26.448-64.482-61.139l-1.412-53.327l-0.485-18.074 C218.813,6.33,230.995-1.096,240.98,4.41L346,62.239l0.53,20.203l0.088,3.343C347.545,120.476,320.17,149.341,285.49,150.268z"></path><path style="fill:#F27293;" d="M285.49,150.268c-34.691,0.916-63.555-26.448-64.482-61.139l-1.412-53.327 c0.508-0.022,1.026-0.033,1.534-0.033c14.245,0,27.077,7.9,33.488,20.6l14.421,28.6l2.527-7.944 c4.601-14.421,17.875-24.109,33.035-24.109c9.776,0,19.133,4.182,25.698,11.475l16.231,18.052l0.088,3.343 C347.545,120.476,320.17,149.341,285.49,150.268z"></path><path style="fill:#FC819C;" d="M141.369,208.938l-38.379-76.105c-6.127-12.15,3.252-26.363,16.833-25.508l142.777,8.989 L141.369,208.938z"></path><path style="fill:#FFA6B7;" d="M265.544,223.654c-6.311,7.459-14.201,13.792-23.469,18.471 c-36.975,18.647-82.059,3.785-100.706-33.19l-6.499-12.887l-6.157-12.215L206.37,63.685c7.382-11.431,24.385-10.526,30.52,1.633 l23.535,46.673l14.841,29.427c3.851,7.646,6.278,15.635,7.36,23.668C285.505,186.161,279.193,207.522,265.544,223.654z"></path><g><path style="fill:#FC819C;" d="M265.544,223.654c-6.311,7.459-14.201,13.792-23.469,18.471 c-36.975,18.647-82.059,3.785-100.706-33.19l-6.499-12.887c39.777-21.152,83.549-31.733,127.309-31.733 c6.819,0,13.638,0.254,20.446,0.772C285.505,186.161,279.193,207.522,265.544,223.654z"></path><path style="fill:#FC819C;" d="M265.541,223.654c-3.972-4.711-7.448-9.908-10.35-15.514c-10.14-19.629-12.027-42.028-5.318-63.07 l10.548-33.08l14.841,29.427C289.231,169.124,284.398,201.376,265.541,223.654z"></path><path style="fill:#FC819C;" d="M388.517,189.267l21.692-68.05c3.463-10.864-6.177-21.385-17.302-18.881l-116.954,26.321 L388.517,189.267z"></path></g><path style="fill:#FFA6B7;" d="M309.576,230.045L309.576,230.045c-33.06-10.538-51.317-45.881-40.779-78.941l21.692-68.05 c3.463-10.864,17.414-13.865,25.037-5.385l80.146,89.149l-7.155,22.448C377.978,222.326,342.635,240.584,309.576,230.045z"></path><path style="fill:#FC819C;" d="M386.575,194.524c-12.435,29.703-45.735,45.482-76.994,35.518 c-28.677-9.136-46.199-36.92-43.496-65.696C307.484,164.932,348.773,174.994,386.575,194.524z"></path><path style="fill:#D8D7DA;" d="M396.197,238.544l-30.205,68.394l-16.04,36.335l-10.384,23.509l-6.253,14.165L280.807,499.87 c-7.139,16.174-30.102,16.174-37.252,0l-6.047-13.691l-10.116-22.901l-36.355-82.332l-6.253-14.155L174.4,343.272l-16.04-36.335 l-30.195-68.394c-0.824-1.865-1.216-3.822-1.216-5.738c0-4.79,2.411-9.416,6.696-12.094c3.07-1.916,6.171-3.75,9.292-5.532 c36.994-20.902,78.119-31.349,119.243-31.349c13.289,0,26.558,1.092,39.703,3.276h0.01c5.079,0.834,10.137,1.844,15.175,3.018 c23.375,5.429,46.121,14.381,67.446,26.846c2.081,1.205,4.152,2.452,6.212,3.74C396.713,224.471,399.051,232.064,396.197,238.544z"></path><g><path style="fill:#C7C5CC;" d="M250.88,435.525l-13.372,50.654l-10.116-22.901l8.571-31.771c1.113-4.121,5.357-6.562,9.478-5.449 C249.561,427.17,251.993,431.414,250.88,435.525z"></path><path style="fill:#C7C5CC;" d="M317.069,190.125c-0.01,0.062-0.021,0.123-0.041,0.185l-58.061,215.267 c-0.938,3.451-4.049,5.718-7.458,5.718c-0.67,0-1.349-0.082-2.019-0.268c-4.121-1.113-6.562-5.347-5.45-9.467l57.845-214.453h0.01 C306.973,187.941,312.032,188.951,317.069,190.125z"></path><path style="fill:#C7C5CC;" d="M396.197,238.539l-30.2,68.399l-16.043,36.335l-69.149,156.593 c-6.278,14.212-24.771,15.933-34.007,5.164c1.28-1.479,2.372-3.2,3.244-5.164l69.149-156.593l16.043-36.335 c0,0,25.047-56.626,39.821-95.222c3.178,1.677,6.334,3.432,9.456,5.252c2.085,1.214,4.16,2.461,6.212,3.74 C396.715,224.47,399.054,232.062,396.197,238.539z"></path></g><path style="fill:#63CEC1;" d="M365.997,306.938l-16.043,36.335c-8.661-3.718-17.544-6.885-26.58-9.467 c-19.817-5.671-40.428-8.584-61.194-8.584c-30.2,0-60.124,6.19-87.774,18.051l-16.043-36.335 c32.682-14.09,68.09-21.439,103.818-21.439c26.294,0,52.378,3.972,77.325,11.685C348.497,299.953,357.335,303.208,365.997,306.938z"></path><path style="fill:#5BBAAC;" d="M365.997,306.938l-16.043,36.335c-8.661-3.718-17.544-6.885-26.58-9.467l11.861-26.867 c0,0,1.622-3.663,4.27-9.754C348.497,299.953,357.335,303.208,365.997,306.938z"></path><path style="fill:#63CEC1;" d="M339.568,366.781l-6.253,14.165c-8.983-3.173-18.121-5.718-27.382-7.644 c-14.34-2.998-28.979-4.502-43.752-4.502c-24.261,0-48.192,4.09-71.144,12.146l-6.253-14.155c0.175-0.082,0.361-0.165,0.546-0.227 c24.776-8.777,50.633-13.217,76.852-13.217c16.946,0,33.718,1.854,50.129,5.522c9.024,2.019,17.946,4.584,26.723,7.695 C339.218,366.626,339.393,366.698,339.568,366.781z"></path><path style="fill:#5BBAAC;" d="M339.568,366.781l-6.253,14.165c-8.983-3.173-18.121-5.718-27.382-7.644l6.377-14.433 c9.024,2.019,17.946,4.584,26.723,7.695C339.218,366.626,339.393,366.698,339.568,366.781z"></path></svg>