<!-- icon666.com - MILLIONS OF FREE VECTOR ICONS --><svg version="1.1" id="Capa_1" xmlns="http://www.w3.org/2000/svg" xmlns:xlink="http://www.w3.org/1999/xlink" x="0px" y="0px" viewBox="0 0 511.99 511.99" style="enable-background:new 0 0 511.99 511.99;" xml:space="preserve"><linearGradient id="SVGID_1_" gradientUnits="userSpaceOnUse" x1="-383.5632" y1="342.5388" x2="-383.5632" y2="343.5188" gradientTransform="matrix(511.9893 0 0 404.1623 196636.2344 -138387.8906)"><stop offset="0" style="stop-color:#EE4DB7"></stop><stop offset="1" style="stop-color:#C743F9"></stop></linearGradient><path style="fill:url(#SVGID_1_);" d="M488.288,58.602L174.394,424.798L23.012,273.388c-5.254-5.254-13.796-5.254-19.051,0l0,0 c-5.281,5.254-5.281,13.796,0,19.078l0,0l161.676,161.676c2.506,2.506,5.955,3.934,9.512,3.934l0,0h0.512l0,0 c3.772-0.162,7.275-1.859,9.701-4.716l0,0L508.74,76.144c4.85-5.659,4.204-14.174-1.482-18.997l0,0 c-2.533-2.183-5.632-3.234-8.757-3.234l0,0C494.728,53.914,490.955,55.504,488.288,58.602"></path></svg>