<!-- icon666.com - MILLIONS OF FREE VECTOR ICONS --><svg id="Flat_gradient" viewBox="0 0 64 64" xmlns="http://www.w3.org/2000/svg" xmlns:xlink="http://www.w3.org/1999/xlink" data-name="Flat gradient"><linearGradient id="linear-gradient" gradientUnits="userSpaceOnUse" x1="4.885" x2="59.108" y1="32" y2="32"><stop offset="0" stop-color="#ff81ff"></stop><stop offset="1" stop-color="#a93aff"></stop></linearGradient><path d="m58.7666 53.7627-6.8726 5.99121a1.00016 1.00016 0 0 1 -1.31445-1.50782l4.86072-4.2373h-42.55843v3.21a1 1 0 0 1 -2 0v-3.21h-4.99121a1 1 0 0 1 0-2h4.99121v-44.34l-4.23726 4.86145a1.00032 1.00032 0 0 1 -1.50786-1.31442l5.99122-6.873a1.00046 1.00046 0 0 1 1.5078 0l5.99118 6.873a1.00034 1.00034 0 0 1 -1.50778 1.31449l-4.2373-4.86151v44.34h42.55847l-4.86068-4.23727a1.00033 1.00033 0 0 1 1.31437-1.50786l6.87252 5.99122a.9838.9838 0 0 1 .19548 1.24523 1.33737 1.33737 0 0 1 -.1954.26258zm-43.7666-34.7627v26a3.99891 3.99891 0 0 0 4 4h26a3.99891 3.99891 0 0 0 4-4v-26a3.99887 3.99887 0 0 0 -4-4h-26a3.99887 3.99887 0 0 0 -4 4z" fill="url(#linear-gradient)"></path></svg>