<!-- icon666.com - MILLIONS OF FREE VECTOR ICONS --><svg viewBox="-33 0 511 512" xmlns="http://www.w3.org/2000/svg"><path d="m349.117188 151.101562-21.210938-21.210937c12.363281-12.375 16.421875-31.15625 10.3125-47.839844l-7.367188-20.15625h86.25v86.265625l-20.15625-7.371094c-16.683593-6.152343-35.464843-2.050781-47.828124 10.3125zm0 0" fill="#ff3997"></path><path d="m96.007812 151.101562c-12.363281-12.363281-31.128906-16.449218-47.84375-10.3125l-20.152343 7.367188v-86.261719h86.847656l-7.730469 20.332031c-6.285156 16.539063-2.332031 35.257813 10.089844 47.664063zm0 0" fill="#ff5ca8"></path><path d="m374.121094 211h-151.113282v-30c12.070313 0 23.292969-4.671875 31.566407-13.167969 8.761719-8.542969 13.433593-19.746093 13.433593-31.832031v-31.113281l70.503907-70.503907 10.605469 10.605469c7.527343 7.53125 13.316406 16.449219 17.195312 26.515625 4.453125 12.1875 5.65625 25.003906 3.882812 37.277344 12.320313-1.785156 25.019532-.570312 37.0625 3.824219 10.269532 3.957031 19.203126 9.742187 26.746094 17.273437l10.636719 10.601563zm0 0" fill="#ff5ca8"></path><path d="m223.007812 211h-152.003906l-70.503906-70.503906 10.605469-10.605469c7.527343-7.527344 16.449219-13.3125 26.511719-17.195313 12.191406-4.46875 24.992187-5.699218 37.3125-3.882812-1.742188-12.320312-.441407-25.136719 4.160156-37.25 3.324218-9.640625 9.066406-18.722656 16.917968-26.574219l10.605469-10.601562 71.394531 71.410156v30.203125c0 24.8125 20.1875 45 45 45zm0 0" fill="#ff7cb9"></path><path d="m223.007812 0-61.5 56.199219 19.800782 9c16.199218 7.199219 26.699218 23.101562 26.699218 40.800781h30c0-17.699219 10.5-33.601562 26.699219-40.800781l19.800781-9zm0 0" fill="#ff5ca8"></path><path d="m238.007812 106h-15v-106l61.5 56.199219-19.796874 9c-16.203126 7.199219-26.703126 23.101562-26.703126 40.800781zm0 0" fill="#ff3997"></path><path d="m283.007812 31c-11.097656 0-21.597656 2.398438-30.601562 6.597656-11.996094 5.402344-21.898438 13.5-29.398438 23.402344-7.5-9.902344-17.398437-18-28.800781-23.101562-9.597656-4.5-20.097656-6.898438-31.199219-6.898438h-15v105c0 41.398438 33.601563 75 75 75 20.101563 0 39-7.800781 52.800782-21.902344 14.398437-14.097656 22.199218-32.699218 22.199218-53.097656v-105zm0 0" fill="#ff9ac9"></path><path d="m275.808594 189.097656c-13.800782 14.101563-32.699219 21.902344-52.800782 21.902344v-150c7.5-9.902344 17.402344-18 29.398438-23.402344 9.003906-4.199218 19.503906-6.597656 30.601562-6.597656h15v105c0 20.398438-7.796874 39-22.199218 53.097656zm0 0" fill="#ff7cb9"></path><path d="m321.410156 214.300781-88.5 206.699219h-47.699218l-171.300782-240h289.199219zm0 0" fill="#ede9e8"></path><path d="m321.410156 214.300781-88.5 206.699219h-9.902344v-240h80.101563zm0 0" fill="#dfd7d5"></path><path d="m303.109375 181-80.097656 186.898438-22.800781 53.101562h60.597656l171.300781-240zm0 0" fill="#dfd7d5"></path><path d="m432.109375 181-171.300781 240h-37.800782v-53.101562l80.101563-186.898438zm0 0" fill="#d2c5c2"></path><path d="m271.308594 406.300781h-96.597656l-69.601563 105.699219h235.800781zm0 0" fill="#d2c5c2"></path><path d="m340.910156 512h-117.902344v-105.699219h48.300782zm0 0" fill="#c4b3af"></path></svg>